<svg width="20" height="21" viewBox="0 0 20 21" fill="none" xmlns="http://www.w3.org/2000/svg">
<path d="M9.75 6.5C8.093 6.5 6.75 7.395 6.75 8.5C6.75 9.605 8.093 10.5 9.75 10.5C11.407 10.5 12.75 11.395 12.75 12.5C12.75 13.605 11.407 14.5 9.75 14.5M9.75 6.5V14.5M9.75 6.5C10.86 6.5 11.83 6.902 12.349 7.5M9.75 6.5V5.5M9.75 14.5V15.5M9.75 14.5C8.64 14.5 7.67 14.098 7.151 13.5M18.75 10.5C18.75 11.6819 18.5172 12.8522 18.0649 13.9442C17.6126 15.0361 16.9497 16.0282 16.114 16.864C15.2782 17.6997 14.2861 18.3626 13.1942 18.8149C12.1022 19.2672 10.9319 19.5 9.75 19.5C8.5681 19.5 7.39778 19.2672 6.30585 18.8149C5.21392 18.3626 4.22177 17.6997 3.38604 16.864C2.55031 16.0282 1.88738 15.0361 1.43508 13.9442C0.982792 12.8522 0.75 11.6819 0.75 10.5C0.75 8.11305 1.69821 5.82387 3.38604 4.13604C5.07387 2.44821 7.36305 1.5 9.75 1.5C12.1369 1.5 14.4261 2.44821 16.114 4.13604C17.8018 5.82387 18.75 8.11305 18.75 10.5Z" stroke="#27B78D" stroke-opacity="0.6" stroke-width="1.5" stroke-linecap="round" stroke-linejoin="round"/>
</svg>
