<svg width="24" height="21" viewBox="0 0 24 21" fill="none" xmlns="http://www.w3.org/2000/svg">
<path fill-rule="evenodd" clip-rule="evenodd" d="M0.799805 2.49999C0.799805 2.07565 0.968376 1.66868 1.26843 1.36862C1.56849 1.06857 1.97546 0.899994 2.3998 0.899994H21.5998C22.0242 0.899994 22.4311 1.06857 22.7312 1.36862C23.0312 1.66868 23.1998 2.07565 23.1998 2.49999C23.1998 2.92434 23.0312 3.33131 22.7312 3.63136C22.4311 3.93142 22.0242 4.09999 21.5998 4.09999H2.3998C1.97546 4.09999 1.56849 3.93142 1.26843 3.63136C0.968376 3.33131 0.799805 2.92434 0.799805 2.49999ZM0.799805 10.5C0.799805 10.0756 0.968376 9.66868 1.26843 9.36862C1.56849 9.06857 1.97546 8.89999 2.3998 8.89999H21.5998C22.0242 8.89999 22.4311 9.06857 22.7312 9.36862C23.0312 9.66868 23.1998 10.0756 23.1998 10.5C23.1998 10.9243 23.0312 11.3313 22.7312 11.6314C22.4311 11.9314 22.0242 12.1 21.5998 12.1H2.3998C1.97546 12.1 1.56849 11.9314 1.26843 11.6314C0.968376 11.3313 0.799805 10.9243 0.799805 10.5ZM0.799805 18.5C0.799805 18.0756 0.968376 17.6687 1.26843 17.3686C1.56849 17.0686 1.97546 16.9 2.3998 16.9H11.9998C12.4242 16.9 12.8311 17.0686 13.1312 17.3686C13.4312 17.6687 13.5998 18.0756 13.5998 18.5C13.5998 18.9243 13.4312 19.3313 13.1312 19.6314C12.8311 19.9314 12.4242 20.1 11.9998 20.1H2.3998C1.97546 20.1 1.56849 19.9314 1.26843 19.6314C0.968376 19.3313 0.799805 18.9243 0.799805 18.5Z" fill="#2F3A46"/>
</svg>
