<svg width="20" height="20" viewBox="0 0 20 20" fill="none" xmlns="http://www.w3.org/2000/svg">
<path d="M3.94598 14.4032C4.13985 14.4066 4.33255 14.3778 4.51638 14.3183L5.56277 16.8353C5.66726 17.0983 5.87342 17.308 6.13474 17.417L6.13485 17.417C6.39621 17.5257 6.69045 17.5246 6.95098 17.4133L7.9627 16.9949L7.96413 16.9943C8.22328 16.8847 8.42975 16.6785 8.53936 16.4192L8.5399 16.4179C8.64729 16.1587 8.64729 15.8675 8.5399 15.6083L8.53982 15.6081L7.64849 13.4634L12.9269 13.1965C13.454 13.1806 13.9397 12.9062 14.225 12.4625C14.5107 12.0182 14.5589 11.4617 14.3537 10.975C14.3537 10.9749 14.3536 10.9747 14.3535 10.9746L11.7468 4.7237C11.546 4.24154 11.1231 3.88705 10.6132 3.77341C10.1035 3.65979 9.57029 3.80108 9.18363 4.15218C9.18354 4.15226 9.18344 4.15235 9.18335 4.15244L4.3576 8.50555L2.55154 9.26727C2.55143 9.26732 2.55131 9.26737 2.5512 9.26742C2.12091 9.44687 1.77917 9.78928 1.60084 10.2201C1.42239 10.6508 1.42186 11.1347 1.59941 11.5658C1.59947 11.5659 1.59953 11.566 1.59959 11.5662L2.31192 13.3159L2.31191 13.3159L2.31269 13.3177C2.4477 13.64 2.67505 13.9148 2.96592 14.108L2.96596 14.108C3.25643 14.3008 3.59738 14.4036 3.94598 14.4032ZM3.94598 14.4032C3.94527 14.4032 3.94457 14.4032 3.94386 14.4031L3.94764 14.2032L3.94809 14.4032C3.94739 14.4032 3.94668 14.4032 3.94598 14.4032ZM5.64278 12.7368L5.00061 11.1789L5.00052 11.1787L4.35712 9.6234L2.94073 10.1878C2.94062 10.1878 2.9405 10.1879 2.94038 10.1879C2.75509 10.2627 2.60799 10.4096 2.53279 10.5951L5.64278 12.7368ZM5.64278 12.7368L4.57895 13.1677L4.57893 13.1677L4.57485 13.1694L4.21568 13.3243C4.03686 13.3932 3.83835 13.3898 3.66198 13.3148L3.66188 13.3148C3.48458 13.2395 3.34373 13.0978 3.26947 12.92L5.64278 12.7368ZM18.5324 9.4373C18.5403 9.30366 18.4948 9.17247 18.4064 9.07234L18.4062 9.07214C18.3168 8.97124 18.1912 8.91045 18.0572 8.9024L18.0572 8.90237L18.0537 8.90222L15.5566 8.79604C15.4203 8.78583 15.2857 8.8319 15.1841 8.92357L15.184 8.92373C15.0822 9.01585 15.0224 9.14597 15.0194 9.28365C15.0092 9.56554 15.2261 9.80409 15.5078 9.8204L15.5078 9.82042L15.5109 9.82055L18.0116 9.92689L18.0116 9.92706L18.0199 9.92707C18.2945 9.9273 18.5202 9.71117 18.5324 9.4373ZM18.5324 9.4373C18.5324 9.43806 18.5323 9.43883 18.5323 9.43959L18.3327 9.4269L18.5325 9.43489C18.5325 9.43569 18.5325 9.43649 18.5324 9.4373ZM16.0359 3.2838C15.8354 3.08336 15.5105 3.08317 15.3098 3.28324C15.3096 3.28343 15.3095 3.28361 15.3093 3.2838L13.541 5.027L13.5409 5.02696L13.5378 5.03021C13.3427 5.23143 13.3427 5.55134 13.5378 5.75255L13.5376 5.75272L13.5449 5.7595C13.7466 5.94794 14.06 5.94795 14.2618 5.75949L14.2619 5.75955L14.2657 5.75576L16.0349 4.01156L16.0359 4.01055C16.2366 3.80985 16.2367 3.4845 16.0359 3.2838ZM16.0359 3.2838L15.8945 3.42522M16.0359 3.2838C16.0359 3.28377 16.0358 3.28375 16.0358 3.28372L15.8945 3.42522M15.8945 3.42522C16.0171 3.54774 16.0171 3.74646 15.8945 3.86913L15.4507 3.42522C15.5732 3.3027 15.7719 3.3027 15.8945 3.42522ZM3.26937 12.9198L2.54423 11.1758L2.54428 11.1758L2.54238 11.1715C2.46121 10.9885 2.45772 10.7805 2.53277 10.5951L3.26937 12.9198ZM7.58914 15.9688L7.58957 15.9698C7.59289 15.9776 7.59289 15.9863 7.58957 15.9941L7.58953 15.9941L7.5879 15.9982C7.58535 16.0045 7.58045 16.0094 7.57407 16.012L7.57406 16.012L7.57111 16.0132L6.56164 16.4368C6.53995 16.4444 6.51641 16.4341 6.5073 16.4133C6.50724 16.4132 6.50718 16.4131 6.50712 16.4129L5.46573 13.9232L6.42569 13.522H6.56156L7.58914 15.9688ZM12.8802 12.1717L12.8775 12.1719L6.64798 12.4837L5.94546 10.7883L5.94504 10.7873L5.23729 9.10515L9.86474 4.9241L9.86475 4.9241L9.86613 4.92283C10.0064 4.79367 10.2009 4.74156 10.387 4.7833L10.3878 4.78348C10.5729 4.82417 10.7255 4.95416 10.7949 5.13039L10.7949 5.1304L10.7962 5.13353L13.3842 11.3848C13.3842 11.3849 13.3843 11.385 13.3843 11.3851C13.4539 11.5548 13.4384 11.7474 13.3425 11.9039C13.2425 12.0645 13.0692 12.1649 12.8802 12.1717ZM14.7419 7.25938L14.7419 7.25954C14.769 7.39447 14.8485 7.51301 14.9629 7.58928C15.0697 7.66046 15.1984 7.68906 15.3242 7.6711C15.3721 7.6729 15.4206 7.66953 15.4684 7.66065L15.4882 7.65698L15.5068 7.64946L15.6087 7.60833L15.6087 7.60834L15.6105 7.60758L17.8144 6.69258C17.8146 6.69249 17.8148 6.69241 17.815 6.69232C18.0774 6.5848 18.2033 6.28515 18.0959 6.02238C17.9886 5.75974 17.6892 5.63391 17.4266 5.7405C17.4263 5.74064 17.426 5.74077 17.4257 5.7409L15.1291 6.65337C14.8594 6.7181 14.6872 6.98511 14.7419 7.25938Z" fill="#53545C" stroke="#53545C" stroke-width="0.4"/>
</svg>
