<svg width="20" height="20" viewBox="0 0 20 20" fill="none" xmlns="http://www.w3.org/2000/svg">
<path d="M8.24672 4.96406C8.24672 3.86826 7.3584 2.97993 6.2626 2.97993H4.67529C3.57949 2.97993 2.69116 3.86826 2.69116 4.96406V4.96406C2.69116 6.05986 3.57948 6.94818 4.67529 6.94818H6.2626C7.3584 6.94818 8.24672 6.05986 8.24672 4.96406V4.96406Z" stroke="white" stroke-width="1.6" stroke-linecap="round" stroke-linejoin="round"/>
<path d="M16.977 5.75774C16.977 4.2236 15.7333 2.97993 14.1992 2.97993V2.97993C12.6651 2.97993 11.4214 4.2236 11.4214 5.75774V7.34497C11.4214 8.87912 12.6651 10.1228 14.1992 10.1228V10.1228C15.7333 10.1228 16.977 8.87911 16.977 7.34497V5.75774Z" stroke="white" stroke-width="1.66667" stroke-linecap="round" stroke-linejoin="round"/>
<path d="M16.9772 15.2802C16.9772 14.1844 16.0888 13.2961 14.993 13.2961H13.4058C12.31 13.2961 11.4216 14.1844 11.4216 15.2802V15.2802C11.4216 16.3761 12.31 17.2644 13.4058 17.2644H14.993C16.0888 17.2644 16.9772 16.3761 16.9772 15.2802V15.2802Z" stroke="white" stroke-width="1.66667" stroke-linecap="round" stroke-linejoin="round"/>
<path d="M8.24672 12.9006C8.24672 11.3664 7.00307 10.1228 5.46894 10.1228V10.1228C3.93482 10.1228 2.69116 11.3664 2.69116 12.9006V14.4879C2.69116 16.022 3.93482 17.2656 5.46894 17.2656V17.2656C7.00307 17.2656 8.24672 16.022 8.24672 14.4879V12.9006Z" stroke="white" stroke-width="1.66667" stroke-linecap="round" stroke-linejoin="round"/>
</svg>
