<svg width="20" height="20" viewBox="0 0 20 20" fill="none" xmlns="http://www.w3.org/2000/svg">
<path d="M2.10134 6.25857C2.15837 5.38059 2.86353 4.68896 3.74993 4.64505C5.54138 4.55629 8.08838 4.45 10 4.45C11.9116 4.45 14.4586 4.55629 16.2501 4.64505C17.1365 4.68896 17.8416 5.38059 17.8987 6.25857C17.9754 7.44051 18.05 8.87979 18.05 10C18.05 11.1202 17.9754 12.5595 17.8987 13.7414C17.8416 14.6194 17.1365 15.311 16.2501 15.355C14.4586 15.4437 11.9116 15.55 10 15.55C8.08838 15.55 5.54138 15.4437 3.74993 15.355C2.86354 15.311 2.15837 14.6194 2.10134 13.7414C2.02457 12.5595 1.95 11.1202 1.95 10C1.95 8.87979 2.02457 7.44051 2.10134 6.25857Z" stroke="#27B78D" stroke-width="1.4"/>
<path d="M8.125 8.47082V11.5292C8.125 11.9752 8.59439 12.2653 8.99333 12.0658L12.0517 10.5367C12.4939 10.3155 12.4939 9.68446 12.0517 9.46334L8.99333 7.93416C8.59439 7.73469 8.125 8.02479 8.125 8.47082Z" stroke="#27B78D" stroke-width="1.4"/>
</svg>
